# xmcd
# Copyright (C) 1995-1998 Ti Kan
#
# Track frame offsets:
#       150
#       46199
#       164791
#
# Disc length: 3662 seconds
#
# Revision: 0
# Processed by: cddbd v1.5.2PL0 Copyright (c) Steve Scherf et al.
# Submitted via: CD-Import v1.0
#
DISCID=210e4c03
DTITLE=Eugen Wälti - 
DYEAR=1900
DGENRE=
TTITLE0=Elektropique T11
TTITLE1=Elektropique T12
TTITLE2=Elektropique T13
EXTD=
EXTT0=
EXTT1=
EXTT2=
PLAYORDER=
